<?xml version="1.0" encoding="UTF-8"?>
<!DOCTYPE svg PUBLIC "-//W3C//DTD SVG 1.1//EN" "http://www.w3.org/Graphics/SVG/1.1/DTD/svg11.dtd">
<svg xmlns="http://www.w3.org/2000/svg" xml:space="preserve" width="297mm" height="420mm" version="1.1" style="shape-rendering:geometricPrecision; text-rendering:geometricPrecision; image-rendering:optimizeQuality; fill-rule:evenodd; clip-rule:evenodd"
viewBox="0 0 29700 42000"
 xmlns:xlink="http://www.w3.org/1999/xlink"
 xmlns:xodm="http://www.corel.com/coreldraw/odm/2003">
 <defs>
  <style type="text/css">
   <![CDATA[
    .fil0 {fill:#FEFEFE}
    .fil4 {fill:#727271}
    .fil3 {fill:#434242}
    .fil1 {fill:#E6CEC8}
    .fil2 {fill:#898989;fill-rule:nonzero}
   ]]>
  </style>
 </defs>
 <g>
  <path class="fil0" d="M17.28 5.8l29682.19 0 0 26342.88 -4794.05 -4254.7c1101.35,-1793.34 1736.61,-3903.72 1736.61,-6162.53 0,-3256.42 -1319.93,-6204.56 -3453.97,-8338.6 -2134.03,-2134.03 -5082.19,-3453.96 -8338.6,-3453.96 -2762.26,0 -5302.61,949.88 -7312.51,2540.6l-7519.67 -6673.69z"/>
  <path class="fil1" d="M17.28 5.8l7557.77 6707.5c-2721.46,2150.55 -4468.15,5480.27 -4468.15,9218.15 0,6485.24 5257.32,11742.57 11742.56,11742.57 4239.2,0 7953.34,-2246.62 10017.78,-5613.93l4832.23 4288.59 0 15657.12 -29700 0 17.81 -42000z"/>
  <path class="fil2" d="M14849.46 4138.89c3256.41,0 6204.57,1319.93 8338.6,3453.96 2134.04,2134.04 3453.97,5082.18 3453.97,8338.6 0,3256.41 -1319.93,6204.56 -3453.97,8338.6 -2134.02,2134.03 -5082.19,3453.97 -8338.6,3453.97 -3256.42,0 -6204.57,-1319.94 -8338.59,-3453.97 -2134.04,-2134.04 -3453.97,-5082.18 -3453.97,-8338.6 0,-3256.42 1319.94,-6204.57 3453.96,-8338.6 2134.03,-2134.02 5082.18,-3453.96 8338.6,-3453.96zm8267.9 3524.66c-2115.92,-2115.92 -5039.08,-3424.66 -8267.9,-3424.66 -3228.81,0 -6151.97,1308.74 -8267.9,3424.66 -2115.92,2115.93 -3424.66,5039.09 -3424.66,8267.9 0,3228.82 1308.74,6151.97 3424.67,8267.9 2115.92,2115.93 5039.07,3424.67 8267.89,3424.67 3228.82,0 6151.98,-1308.74 8267.9,-3424.67 2115.93,-2115.93 3424.67,-5039.08 3424.67,-8267.9 0,-3228.82 -1308.74,-6151.97 -3424.67,-8267.9z"/>
 </g>
</svg>
