<?xml version="1.0" encoding="UTF-8"?>
<!DOCTYPE svg PUBLIC "-//W3C//DTD SVG 1.1//EN" "http://www.w3.org/Graphics/SVG/1.1/DTD/svg11.dtd">
<svg xmlns="http://www.w3.org/2000/svg" xml:space="preserve" version="1.1" style="shape-rendering:geometricPrecision; text-rendering:geometricPrecision; image-rendering:optimizeQuality; fill-rule:evenodd; clip-rule:evenodd"
viewBox="0 0 29700 42000"
 xmlns:xlink="http://www.w3.org/1999/xlink"
 xmlns:xodm="http://www.corel.com/coreldraw/odm/2003">
  <defs>
  <style type="text/css">
   <![CDATA[
    .str0 {stroke:#1B2F4D;stroke-width:50;stroke-miterlimit:22.9256}
    .fil3 {fill:none}
    .fil1 {fill:#FEFEFE}
    .fil0 {fill:transparent}
    .fil2 {fill:#1B2F4D}
   ]]>
  </style>
 </defs>
 <g>
  <path class="fil0" d="M14651.36 25652.24c-802.83,-461.69 -3744.43,-2197.19 -6222.17,-4224.66 -3070.25,-2512.21 -6098.97,-6265.34 -6079.62,-10167.16 14.52,-2946.33 1553.99,-5183.86 3695.02,-6153.89 3421.19,-1550.12 6948.45,-197.17 8606.77,2349.18l0 18196.53zm376.54 -18166.3c1650.02,-2565.87 5191.72,-3935.66 8626.45,-2379.41 2141.03,970.03 3680.49,3207.56 3695.02,6153.89 19.35,3901.82 -3009.37,7654.95 -6079.62,10167.16 -2498.24,2044.25 -5468.26,3791.79 -6241.85,4235.97l0 -18177.61z"/>
  <path class="fil1" d="M-0.53 5.8l29700 0 0 42000 -29700 0 0 -42000zm14651.89 25646.44c-802.83,-461.69 -3744.43,-2197.19 -6222.17,-4224.66 -3070.25,-2512.21 -6098.97,-6265.34 -6079.62,-10167.16 14.52,-2946.33 1553.99,-5183.86 3695.02,-6153.89 3421.19,-1550.12 6948.45,-197.17 8606.77,2349.18l0 18196.53zm376.54 -18166.3c1650.02,-2565.87 5191.72,-3935.66 8626.45,-2379.41 2141.03,970.03 3680.49,3207.56 3695.02,6153.89 19.35,3901.82 -3009.37,7654.95 -6079.62,10167.16 -2498.24,2044.25 -5468.26,3791.79 -6241.85,4235.97l0 -18177.61z"/>
  <text x="3785.81" y="31363.57" class="fil2 fnt0" >В этот день звезды решили за нас</text>
  <text x="9490.03" y="36011.05" class="fil2 fnt1" >ты мой повод быть лучше </text>
  <text x="10468.57" y="36011.05" class="fil2 fnt1"> – </text>
  <text x="12659.17" y="37986.61" class="fil2 fnt2" >3 января 2021</text>
  <text x="12089.93" y="38920.64" class="fil2 fnt2" >россия, москва</text>
  <line class="fil3 str0" x1="10280.99" y1="36692.35" x2="19417.95" y2= "36692.35" />
 </g>
</svg>
