<?xml version="1.0" encoding="UTF-8"?>
<!DOCTYPE svg PUBLIC "-//W3C//DTD SVG 1.1//EN" "http://www.w3.org/Graphics/SVG/1.1/DTD/svg11.dtd">
<svg xmlns="http://www.w3.org/2000/svg" xml:space="preserve" version="1.1" style="shape-rendering:geometricPrecision; text-rendering:geometricPrecision; image-rendering:optimizeQuality; fill-rule:evenodd; clip-rule:evenodd"
viewBox="0 0 29700 42000"
 xmlns:xlink="http://www.w3.org/1999/xlink"
 xmlns:xodm="http://www.corel.com/coreldraw/odm/2003">
 <defs>
  <style type="text/css">
   <![CDATA[
    .str0 {stroke:#2B2A29;stroke-width:20;stroke-miterlimit:22.9256}
    .fil1 {fill:#FEFEFE}
    .fil0 {fill:#2B2A29}
   ]]>
  </style>
 </defs>
 <g>
  <path class="fil0 str0" d="M-0.53 5.8l29700 0 0 42000 -29700 0 0 -42000zm14861.76 29351.3l-11.79 6.61 -11.74 -6.61c-281.83,-158.88 -3083.03,-1753.36 -5401.94,-3650.87 -2588.9,-2118.34 -5142.77,-5283.05 -5126.46,-8573.15 12.25,-2484.4 1310.36,-4371.13 3115.72,-5189.08 3005.21,-1361.64 6107.81,-66.99 7424.42,2254.67 1316.61,-2321.66 4419.26,-3616.31 7424.48,-2254.67 1805.35,817.95 3103.46,2704.68 3115.71,5189.08 16.31,3290.1 -2537.56,6454.81 -5126.46,8573.15 -2318.91,1897.51 -5120.11,3491.99 -5401.94,3650.87z"/>
  <path class="fil1" d="M14958.89 29531.32l-109.65 61.47 -109.2 -61.47c-184.37,-103.93 -1440.58,-818.63 -2935.1,-1828.69 -805.21,-544.2 -1680.19,-1174.36 -2495.74,-1841.71 -1435.28,-1174.4 -2861.12,-2669.07 -3855.17,-4331.45 -824.12,-1378.22 -1351.5,-2872.25 -1343.95,-4397.17 6.12,-1243.32 325.24,-2342.69 865.34,-3242.21 575.75,-958.89 1401.75,-1690.54 2367.57,-2128.12 1486.47,-673.51 2997.78,-716.99 4319.27,-315.68 1326.86,402.94 2461.47,1255.12 3187.18,2369.01 725.71,-1113.88 1860.32,-1966.07 3187.21,-2369.01 1321.5,-401.31 2832.82,-357.83 4319.3,315.68 965.81,437.58 1791.81,1169.23 2367.56,2128.12 540.1,899.52 859.22,1998.89 865.34,3242.21 7.55,1524.92 -519.83,3018.95 -1343.95,4397.17 -994.05,1662.38 -2419.89,3157.05 -3855.17,4331.45 -815.55,667.35 -1690.53,1297.51 -2495.74,1841.71 -1494.52,1010.06 -2750.73,1724.76 -2935.1,1828.69zm-97.66 -174.22l-11.79 6.61 -11.74 -6.61c-281.83,-158.88 -3083.03,-1753.36 -5401.94,-3650.87 -2588.9,-2118.34 -5142.77,-5283.05 -5126.46,-8573.15 12.25,-2484.4 1310.36,-4371.13 3115.72,-5189.08 3005.21,-1361.64 6107.81,-66.99 7424.42,2254.67 1316.61,-2321.66 4419.26,-3616.31 7424.48,-2254.67 1805.35,817.95 3103.46,2704.68 3115.71,5189.08 16.31,3290.1 -2537.56,6454.81 -5126.46,8573.15 -2318.91,1897.51 -5120.11,3491.99 -5401.94,3650.87z"/>
  <text x="7660" y="4608.62"  class="fil1 fnt0" style="fill:#FEFEFE;">В этот день звезды</text>
  <text x="9887.58" y="7499.14"  class="fil1 fnt0" style="fill:#FEFEFE;">решили за нас</text>
  <text x="8327.49" y="34112.11"  class="fil1 fnt1" style="fill:#FEFEFE;">ты - мой повод быть лучше</text>
  <text x="12581.02" y="38122.47"  class="fil1 fnt2" style="fill:#FEFEFE;">3 января 2021</text>
  <text x="11822.57" y="39030.27"  class="fil1 fnt2" style="fill:#FEFEFE;">россия, москва</text>
 </g>
</svg>
